<mxfile host="65bd71144e">
    <diagram id="X57YnfuRQmc_oqfZ5gvb" name="Page-1">
        <mxGraphModel dx="1086" dy="658" grid="1" gridSize="10" guides="1" tooltips="1" connect="1" arrows="1" fold="1" page="1" pageScale="1" pageWidth="827" pageHeight="1169" math="0" shadow="0">
            <root>
                <mxCell id="0"/>
                <mxCell id="1" parent="0"/>
                <mxCell id="6" style="edgeStyle=elbowEdgeStyle;html=1;entryX=0.5;entryY=0;entryDx=0;entryDy=0;elbow=vertical;rounded=0;" parent="1" source="2" target="3" edge="1">
                    <mxGeometry relative="1" as="geometry"/>
                </mxCell>
                <mxCell id="7" style="edgeStyle=elbowEdgeStyle;rounded=0;elbow=vertical;html=1;" parent="1" source="2" target="4" edge="1">
                    <mxGeometry relative="1" as="geometry"/>
                </mxCell>
                <mxCell id="8" style="edgeStyle=elbowEdgeStyle;rounded=0;elbow=vertical;html=1;entryX=0.5;entryY=0;entryDx=0;entryDy=0;" parent="1" source="2" target="5" edge="1">
                    <mxGeometry relative="1" as="geometry"/>
                </mxCell>
                <mxCell id="2" value="Rock, Paper, Scissors Game" style="rounded=0;whiteSpace=wrap;html=1;" parent="1" vertex="1">
                    <mxGeometry x="290" y="100" width="170" height="60" as="geometry"/>
                </mxCell>
                <mxCell id="10" style="edgeStyle=elbowEdgeStyle;rounded=0;elbow=vertical;html=1;" parent="1" source="3" target="9" edge="1">
                    <mxGeometry relative="1" as="geometry"/>
                </mxCell>
                <mxCell id="3" value="Input" style="rounded=0;whiteSpace=wrap;html=1;" parent="1" vertex="1">
                    <mxGeometry x="60" y="200" width="120" height="60" as="geometry"/>
                </mxCell>
                <mxCell id="12" style="edgeStyle=elbowEdgeStyle;rounded=0;elbow=vertical;html=1;entryX=0.5;entryY=0;entryDx=0;entryDy=0;" parent="1" source="4" target="11" edge="1">
                    <mxGeometry relative="1" as="geometry"/>
                </mxCell>
                <mxCell id="14" style="edgeStyle=elbowEdgeStyle;rounded=0;elbow=vertical;html=1;entryX=0.5;entryY=0;entryDx=0;entryDy=0;" parent="1" source="4" target="13" edge="1">
                    <mxGeometry relative="1" as="geometry"/>
                </mxCell>
                <mxCell id="4" value="Process" style="rounded=0;whiteSpace=wrap;html=1;" parent="1" vertex="1">
                    <mxGeometry x="315" y="200" width="120" height="60" as="geometry"/>
                </mxCell>
                <mxCell id="16" style="edgeStyle=elbowEdgeStyle;rounded=0;elbow=vertical;html=1;" parent="1" source="5" target="15" edge="1">
                    <mxGeometry relative="1" as="geometry"/>
                </mxCell>
                <mxCell id="18" style="edgeStyle=elbowEdgeStyle;rounded=0;elbow=vertical;html=1;entryX=0.5;entryY=0;entryDx=0;entryDy=0;" parent="1" source="5" target="17" edge="1">
                    <mxGeometry relative="1" as="geometry"/>
                </mxCell>
                <mxCell id="20" style="edgeStyle=elbowEdgeStyle;rounded=0;elbow=vertical;html=1;" parent="1" source="5" target="19" edge="1">
                    <mxGeometry relative="1" as="geometry"/>
                </mxCell>
                <mxCell id="22" style="edgeStyle=elbowEdgeStyle;rounded=0;elbow=vertical;html=1;entryX=0.5;entryY=0;entryDx=0;entryDy=0;" parent="1" source="5" target="21" edge="1">
                    <mxGeometry relative="1" as="geometry"/>
                </mxCell>
                <mxCell id="24" style="edgeStyle=elbowEdgeStyle;rounded=0;elbow=vertical;html=1;" parent="1" source="5" target="23" edge="1">
                    <mxGeometry relative="1" as="geometry"/>
                </mxCell>
                <mxCell id="5" value="Output" style="rounded=0;whiteSpace=wrap;html=1;" parent="1" vertex="1">
                    <mxGeometry x="865" y="200" width="120" height="60" as="geometry"/>
                </mxCell>
                <mxCell id="9" value="User inputs Rock, Paper or Scissors" style="rounded=0;whiteSpace=wrap;html=1;" parent="1" vertex="1">
                    <mxGeometry x="60" y="300" width="120" height="60" as="geometry"/>
                </mxCell>
                <mxCell id="11" value="Generates Random Number" style="rounded=0;whiteSpace=wrap;html=1;" parent="1" vertex="1">
                    <mxGeometry x="220" y="305" width="120" height="60" as="geometry"/>
                </mxCell>
                <mxCell id="13" value="Compares user input with random number and checks the game result" style="rounded=0;whiteSpace=wrap;html=1;" parent="1" vertex="1">
                    <mxGeometry x="400" y="305" width="130" height="70" as="geometry"/>
                </mxCell>
                <mxCell id="15" value="Print &quot;You Win&quot;" style="rounded=0;whiteSpace=wrap;html=1;" parent="1" vertex="1">
                    <mxGeometry x="560" y="300" width="130" height="70" as="geometry"/>
                </mxCell>
                <mxCell id="17" value="Print &quot;You Lose&quot;" style="rounded=0;whiteSpace=wrap;html=1;" parent="1" vertex="1">
                    <mxGeometry x="705" y="300" width="130" height="70" as="geometry"/>
                </mxCell>
                <mxCell id="19" value="Print &quot;It's a Tie&quot;" style="rounded=0;whiteSpace=wrap;html=1;" parent="1" vertex="1">
                    <mxGeometry x="860" y="300" width="130" height="70" as="geometry"/>
                </mxCell>
                <mxCell id="21" value="Print &quot;Invalid Input&quot;" style="rounded=0;whiteSpace=wrap;html=1;" parent="1" vertex="1">
                    <mxGeometry x="1020" y="300" width="130" height="70" as="geometry"/>
                </mxCell>
                <mxCell id="23" value="Print &quot;Done.&quot;" style="rounded=0;whiteSpace=wrap;html=1;" parent="1" vertex="1">
                    <mxGeometry x="1176" y="300" width="130" height="70" as="geometry"/>
                </mxCell>
            </root>
        </mxGraphModel>
    </diagram>
</mxfile>